<?xml version="1.0" standalone="no"?>
<!DOCTYPE svg PUBLIC "-//W3C//DTD SVG 20010904//EN"
 "http://www.w3.org/TR/2001/REC-SVG-20010904/DTD/svg10.dtd">
<svg version="1.0" xmlns="http://www.w3.org/2000/svg"
 width="840.000000pt" height="910.000000pt" viewBox="0 0 840.000000 910.000000"
 preserveAspectRatio="xMidYMid meet">

<g transform="translate(0.000000,910.000000) scale(0.100000,-0.100000)"
fill="#000000" stroke="none">
<path d="M4065 8693 c-441 -55 -826 -399 -936 -837 -29 -115 -36 -322 -15
-443 20 -115 72 -263 128 -360 55 -96 181 -239 287 -325 299 -241 737 -295
1116 -137 43 17 112 55 154 83 98 65 262 229 327 327 147 220 206 528 155 798
-45 232 -124 382 -294 558 -175 181 -373 286 -616 327 -86 15 -229 19 -306 9z"/>
<path d="M1644 7282 c-289 -103 -473 -358 -474 -658 -1 -333 252 -624 585
-674 140 -21 261 -1 400 65 164 78 289 221 351 400 25 71 28 94 28 210 1 149
-12 205 -75 326 -78 150 -218 269 -379 323 -73 25 -105 29 -220 33 -129 4
-139 3 -216 -25z"/>
<path d="M6355 7286 c-175 -56 -341 -186 -412 -321 -59 -114 -78 -195 -77
-340 0 -147 8 -183 66 -305 33 -70 56 -101 127 -170 159 -159 345 -223 573
-198 399 43 665 421 582 826 -48 240 -250 451 -490 512 -111 29 -275 27 -369
-4z"/>
<path d="M731 4960 c-64 -14 -197 -81 -274 -140 -117 -89 -224 -261 -247 -401
-19 -113 -9 -279 22 -355 87 -211 220 -345 426 -429 78 -32 239 -44 351 -26
139 22 316 126 405 239 65 81 133 223 146 302 31 198 0 350 -104 509 -93 143
-229 243 -389 288 -63 17 -276 26 -336 13z"/>
<path d="M7362 4959 c-60 -11 -173 -68 -260 -129 -125 -88 -240 -272 -263
-420 -14 -93 -6 -258 16 -325 49 -147 170 -304 291 -378 120 -73 193 -97 312
-103 154 -9 235 5 346 60 164 82 262 182 341 348 40 84 55 157 55 273 0 118
-15 188 -59 279 -128 264 -359 409 -648 405 -48 -1 -107 -5 -131 -10z"/>
<path d="M6425 2620 c-250 -46 -455 -225 -530 -464 -116 -364 75 -745 431
-862 81 -26 101 -29 224 -28 121 0 143 3 215 28 104 36 186 86 260 161 81 81
140 173 172 270 23 71 26 96 26 215 0 119 -3 144 -26 215 -38 116 -90 196
-183 284 -89 85 -165 127 -284 160 -86 24 -233 34 -305 21z"/>
<path d="M1644 2596 c-174 -56 -321 -182 -400 -341 -137 -279 -78 -599 149
-812 72 -67 141 -110 243 -150 64 -25 80 -27 219 -27 144 -1 153 1 231 30 147
57 260 144 338 263 87 133 122 262 113 424 -11 218 -130 420 -319 540 -121 78
-194 97 -368 96 -113 0 -147 -4 -206 -23z"/>
<path d="M4085 1650 c-85 -9 -176 -49 -281 -121 -88 -61 -134 -110 -190 -205
-86 -147 -89 -158 -89 -354 l0 -175 37 -77 c45 -96 97 -174 161 -244 l49 -54
428 0 428 0 49 54 c64 70 116 148 161 244 l37 77 3 161 c4 160 3 162 -27 238
-93 232 -261 387 -476 440 -78 19 -202 26 -290 16z"/>
</g>
</svg>
